<svg width="30" height="30" viewBox="0 0 30 30" fill="none" xmlns="http://www.w3.org/2000/svg">
<path d="M25.1999 8.55006C21.5999 3.00006 14.2499 1.35006 8.54991 4.80006C2.99991 8.25006 1.19991 15.7501 4.79991 21.3001L5.09991 21.7501L3.89991 26.2501L8.39991 25.0501L8.84991 25.3501C10.7999 26.4001 12.8999 27.0001 14.9999 27.0001C17.2499 27.0001 19.4999 26.4001 21.4499 25.2001C26.9999 21.6001 28.6499 14.2501 25.1999 8.55006V8.55006ZM22.0499 20.1001C21.4499 21.0001 20.6999 21.6001 19.6499 21.7501C19.0499 21.7501 18.2999 22.0501 15.2999 20.8501C12.7499 19.6501 10.6499 17.7001 9.14991 15.4501C8.24991 14.4001 7.79991 13.0501 7.64991 11.7001C7.64991 10.5001 8.09991 9.45006 8.84991 8.70006C9.14991 8.40006 9.44991 8.25006 9.74991 8.25006H10.4999C10.7999 8.25006 11.0999 8.25006 11.2499 8.85006C11.5499 9.60006 12.2999 11.4001 12.2999 11.5501C12.4499 11.7001 12.4499 12.0001 12.2999 12.1501C12.4499 12.4501 12.2999 12.7501 12.1499 12.9001C11.9999 13.0501 11.8499 13.3501 11.6999 13.5001C11.3999 13.6501 11.2499 13.9501 11.3999 14.2501C11.9999 15.1501 12.7499 16.0501 13.4999 16.8001C14.3999 17.5501 15.2999 18.1501 16.3499 18.6001C16.6499 18.7501 16.9499 18.7501 17.0999 18.4501C17.2499 18.1501 17.9999 17.4001 18.2999 17.1001C18.5999 16.8001 18.7499 16.8001 19.0499 16.9501L21.4499 18.1501C21.7499 18.3001 22.0499 18.4501 22.1999 18.6001C22.3499 19.0501 22.3499 19.6501 22.0499 20.1001V20.1001Z" fill="#E7B864"/>
</svg>
