<svg width="30" height="30" viewBox="0 0 30 30" fill="none" xmlns="http://www.w3.org/2000/svg">
<path d="M15.0005 0C10.0952 0 6.0752 4.008 6.0752 8.8998C6.0752 10.7952 6.6806 12.5568 7.7051 14.0046L13.9112 24.7335C14.7803 25.869 15.3581 25.6533 16.0808 24.6735L22.9262 13.0245C23.0642 12.7743 23.1728 12.5079 23.2673 12.2358C23.7017 11.1772 23.9251 10.044 23.9249 8.8998C23.9252 4.008 19.9064 0 15.0005 0ZM15.0005 4.17C17.6423 4.17 19.7429 6.2658 19.7429 8.8998C19.7429 11.5338 17.6423 13.6287 15.0005 13.6287C12.359 13.6287 10.2575 11.5341 10.2575 8.8998C10.2575 6.2658 12.359 4.1703 15.0005 4.1703V4.17Z" fill="#E7B864"/>
<path d="M20.6736 14.6724L20.6592 14.7102C20.6637 14.6988 20.6673 14.6871 20.6718 14.6757L20.6736 14.6724V14.6724Z" fill="#E7B864"/>
<path d="M10.2018 20.717C5.964 21.3158 3 22.7483 3 24.857C3 27.6974 7.9524 29.9999 15 29.9999C22.0476 29.9999 27 27.6974 27 24.857C27 22.7483 24.0363 21.3158 19.7988 20.717L19.2117 21.7166C22.4055 22.1597 24.6 23.0909 24.6 24.1715C24.6 25.6865 20.3019 26.9144 15 26.9144C9.6981 26.9144 5.4 25.6865 5.4 24.1715C5.3997 23.0945 7.5798 22.1642 10.7835 21.7193C10.59 21.3851 10.3953 21.0515 10.2015 20.717H10.2018Z" fill="#E7B864"/>
</svg>
